G04*
G04 #@! TF.GenerationSoftware,Altium Limited,Altium Designer,24.10.1 (45)*
G04*
G04 Layer_Physical_Order=2*
G04 Layer_Color=13010237*
%FSLAX44Y44*%
%MOMM*%
G71*
G04*
G04 #@! TF.SameCoordinates,FFF0C86F-6648-4025-B214-3B1406CF911A*
G04*
G04*
G04 #@! TF.FilePolarity,Positive*
G04*
G01*
G75*
%ADD28C,0.8000*%
%ADD29C,5.6000*%
%ADD30C,1.3000*%
%ADD31C,2.0000*%
%ADD32R,0.8000X1.3000*%
%ADD33R,2.1000X3.0000*%
%ADD34R,82.8001X1.6734*%
%ADD35R,1.6790X98.0000*%
%ADD36R,82.8000X1.6766*%
%ADD37R,1.6710X98.0000*%
D28*
X406750Y1451500D02*
X466191D01*
X498290Y1419401D01*
Y711460D02*
X528500Y681250D01*
X498290Y711460D02*
Y1419401D01*
X528500Y678750D02*
Y681250D01*
Y678750D02*
X541000D01*
X528500Y652309D02*
X551599Y629210D01*
X649209D01*
X654866Y634867D01*
Y657057D01*
X661500Y663691D01*
X528500Y652309D02*
Y678750D01*
X661500Y663691D02*
Y678250D01*
X674000D01*
X566000Y678750D02*
Y681250D01*
X594040Y709290D01*
X632529D01*
X645109Y696710D02*
X675289D01*
X632529Y709290D02*
X645109Y696710D01*
X675289D02*
X686500Y685499D01*
Y678250D02*
Y685499D01*
Y678250D02*
X699000D01*
X650000Y590000D02*
X699000Y639000D01*
Y678250D01*
D29*
X423960Y1493984D02*
D03*
Y577984D02*
D03*
X1033960D02*
D03*
Y1493984D02*
D03*
D30*
X482750Y1373000D02*
D03*
Y1416500D02*
D03*
X544000Y1373000D02*
D03*
X605250D02*
D03*
X666500D02*
D03*
X544000Y1416500D02*
D03*
X605250D02*
D03*
X666500D02*
D03*
X1034000Y1373000D02*
D03*
X972750D02*
D03*
X933250Y1356250D02*
D03*
X807000Y1359500D02*
D03*
X983750Y1415250D02*
D03*
X911500Y1416500D02*
D03*
X709750Y1416500D02*
D03*
X789000Y1416500D02*
D03*
X844500Y1416250D02*
D03*
X1034000Y1416500D02*
D03*
X1095250D02*
D03*
Y1373000D02*
D03*
X727750D02*
D03*
X850250D02*
D03*
X1095250Y1286000D02*
D03*
X1034000D02*
D03*
X972750D02*
D03*
X1034000Y1329500D02*
D03*
X972750D02*
D03*
X911500D02*
D03*
X482750D02*
D03*
X544000D02*
D03*
X605250D02*
D03*
X666500D02*
D03*
X727750D02*
D03*
X789000D02*
D03*
X850250D02*
D03*
X1095250D02*
D03*
X360250Y1242500D02*
D03*
X421500D02*
D03*
X482750D02*
D03*
X544000D02*
D03*
X605250D02*
D03*
X666500D02*
D03*
X727750D02*
D03*
X789000D02*
D03*
X911500Y1286000D02*
D03*
X421500D02*
D03*
X482750D02*
D03*
X544000D02*
D03*
X605250D02*
D03*
X666500D02*
D03*
X727750D02*
D03*
X789000D02*
D03*
X850250D02*
D03*
X360250Y1068500D02*
D03*
X421500D02*
D03*
X482750D02*
D03*
X544000D02*
D03*
X605250D02*
D03*
X666500D02*
D03*
X727750D02*
D03*
X789000D02*
D03*
X360250Y1112000D02*
D03*
X421500D02*
D03*
X482750D02*
D03*
X544000D02*
D03*
X605250D02*
D03*
X666500D02*
D03*
X727750D02*
D03*
X789000D02*
D03*
X360250Y1155500D02*
D03*
X421500D02*
D03*
X482750D02*
D03*
X544000D02*
D03*
X605250D02*
D03*
X666500D02*
D03*
X727750D02*
D03*
X789000D02*
D03*
X360250Y1199000D02*
D03*
X421500D02*
D03*
X482750D02*
D03*
X544000D02*
D03*
X605250D02*
D03*
X666500D02*
D03*
X727750D02*
D03*
X789000D02*
D03*
X1095250Y1068500D02*
D03*
X1034000D02*
D03*
X972750D02*
D03*
X911500D02*
D03*
X850250D02*
D03*
X1095250Y1112000D02*
D03*
X1034000D02*
D03*
X972750D02*
D03*
X911500D02*
D03*
X850250D02*
D03*
X1095250Y1155500D02*
D03*
X1034000D02*
D03*
X972750D02*
D03*
X911500D02*
D03*
X850250D02*
D03*
X1095250Y1199000D02*
D03*
X1034000D02*
D03*
X972750D02*
D03*
X911500D02*
D03*
X850250D02*
D03*
X1095250Y1242500D02*
D03*
X1034000D02*
D03*
X972750D02*
D03*
X911500D02*
D03*
X850250D02*
D03*
X360250Y1286000D02*
D03*
X975250Y696250D02*
D03*
Y652750D02*
D03*
X914000Y696250D02*
D03*
X852750D02*
D03*
X791500D02*
D03*
X914000Y652750D02*
D03*
X852750D02*
D03*
X791500D02*
D03*
X424000Y696250D02*
D03*
X485250D02*
D03*
X524750Y713000D02*
D03*
X651000Y709750D02*
D03*
X474250Y654000D02*
D03*
X546500Y652750D02*
D03*
X748250Y652750D02*
D03*
X669000Y652750D02*
D03*
X613500Y653000D02*
D03*
X424000Y652750D02*
D03*
X362750D02*
D03*
Y696250D02*
D03*
X730250D02*
D03*
X607750D02*
D03*
X362750Y783250D02*
D03*
X424000D02*
D03*
X485250D02*
D03*
X424000Y739750D02*
D03*
X485250D02*
D03*
X546500D02*
D03*
X975250D02*
D03*
X914000D02*
D03*
X852750D02*
D03*
X791500D02*
D03*
X730250D02*
D03*
X669000D02*
D03*
X607750D02*
D03*
X362750D02*
D03*
X1097750Y826750D02*
D03*
X1036500D02*
D03*
X975250D02*
D03*
X914000D02*
D03*
X852750D02*
D03*
X791500D02*
D03*
X730250D02*
D03*
X669000D02*
D03*
X546500Y783250D02*
D03*
X1036500D02*
D03*
X975250D02*
D03*
X914000D02*
D03*
X852750D02*
D03*
X791500D02*
D03*
X730250D02*
D03*
X669000D02*
D03*
X607750D02*
D03*
X1097750Y1000750D02*
D03*
X1036500D02*
D03*
X975250D02*
D03*
X914000D02*
D03*
X852750D02*
D03*
X791500D02*
D03*
X730250D02*
D03*
X669000D02*
D03*
X1097750Y957250D02*
D03*
X1036500D02*
D03*
X975250D02*
D03*
X914000D02*
D03*
X852750D02*
D03*
X791500D02*
D03*
X730250D02*
D03*
X669000D02*
D03*
X1097750Y913750D02*
D03*
X1036500D02*
D03*
X975250D02*
D03*
X914000D02*
D03*
X852750D02*
D03*
X791500D02*
D03*
X730250D02*
D03*
X669000D02*
D03*
X1097750Y870250D02*
D03*
X1036500D02*
D03*
X975250D02*
D03*
X914000D02*
D03*
X852750D02*
D03*
X791500D02*
D03*
X730250D02*
D03*
X669000D02*
D03*
X362750Y1000750D02*
D03*
X424000D02*
D03*
X485250D02*
D03*
X546500D02*
D03*
X607750D02*
D03*
X362750Y957250D02*
D03*
X424000D02*
D03*
X485250D02*
D03*
X546500D02*
D03*
X607750D02*
D03*
X362750Y913750D02*
D03*
X424000D02*
D03*
X485250D02*
D03*
X546500D02*
D03*
X607750D02*
D03*
X362750Y870250D02*
D03*
X424000D02*
D03*
X485250D02*
D03*
X546500D02*
D03*
X607750D02*
D03*
X362750Y826750D02*
D03*
X424000D02*
D03*
X485250D02*
D03*
X546500D02*
D03*
X607750D02*
D03*
X1097750Y783250D02*
D03*
D31*
X406750Y1451500D02*
D03*
X650000Y590000D02*
D03*
D32*
X686500Y678250D02*
D03*
X699000D02*
D03*
X566000Y678750D02*
D03*
X553500D02*
D03*
X661500Y678250D02*
D03*
X674000D02*
D03*
X528500Y678750D02*
D03*
X541000D02*
D03*
D33*
X724500Y650750D02*
D03*
X636000D02*
D03*
X591500Y651250D02*
D03*
X503000D02*
D03*
D34*
X728960Y1517617D02*
D03*
D35*
X323355Y1035984D02*
D03*
D36*
X728960Y554367D02*
D03*
D37*
X1134605Y1035984D02*
D03*
M02*
