G04*
G04 #@! TF.GenerationSoftware,Altium Limited,Altium Designer,24.10.1 (45)*
G04*
G04 Layer_Color=65535*
%FSLAX44Y44*%
%MOMM*%
G71*
G04*
G04 #@! TF.SameCoordinates,E5B528EB-D77E-400E-8825-5BB5A6744857*
G04*
G04*
G04 #@! TF.FilePolarity,Positive*
G04*
G01*
G75*
%ADD10C,0.5000*%
%ADD11C,0.1500*%
%ADD12C,0.1000*%
%ADD13C,0.2540*%
D10*
X1130500Y770000D02*
Y1026000D01*
X1102875Y742375D02*
X1130500Y770000D01*
X984861Y624361D02*
X1015894Y654342D01*
X457166Y641166D02*
X473936Y624396D01*
X328936Y769396D02*
X340041Y758291D01*
X329500Y624396D02*
X473936D01*
X328936D02*
Y769396D01*
X473936Y624361D02*
X984861D01*
X329000Y1026000D02*
X1130500D01*
X328936Y769396D02*
Y1025936D01*
X327500Y1043250D02*
Y1299250D01*
X355125Y1326875D01*
X442106Y1414908D02*
X473139Y1444889D01*
X984064Y1444854D02*
X1000834Y1428084D01*
X1117959Y1310959D02*
X1129064Y1299854D01*
X984064Y1444854D02*
X1128500D01*
X1129064Y1299854D02*
Y1444854D01*
X473139Y1444889D02*
X984064D01*
X327500Y1043250D02*
X1129000D01*
X1129064Y1043314D02*
Y1299854D01*
D11*
X356000Y1474964D02*
Y1477250D01*
X378500D01*
X356000Y1461250D02*
X378500D01*
X356000D02*
Y1463536D01*
X371134Y1461250D02*
Y1477250D01*
X378500Y1474866D02*
Y1477152D01*
Y1461500D02*
Y1463786D01*
X966883Y1489736D02*
Y1499733D01*
X970215Y1496400D01*
X973547Y1499733D01*
Y1489736D01*
X983544Y1499733D02*
X976880D01*
Y1489736D01*
X983544D01*
X976880Y1494734D02*
X980212D01*
X993541Y1498067D02*
X991875Y1499733D01*
X988542D01*
X986876Y1498067D01*
Y1491402D01*
X988542Y1489736D01*
X991875D01*
X993541Y1491402D01*
X1001871Y1489736D02*
Y1499733D01*
X996873Y1494734D01*
X1003538D01*
X448819Y1464232D02*
Y1474229D01*
X452151Y1470897D01*
X455484Y1474229D01*
Y1464232D01*
X465480Y1474229D02*
X458816D01*
Y1464232D01*
X465480D01*
X458816Y1469230D02*
X462148D01*
X475477Y1472563D02*
X473811Y1474229D01*
X470479D01*
X468812Y1472563D01*
Y1465898D01*
X470479Y1464232D01*
X473811D01*
X475477Y1465898D01*
X478809Y1472563D02*
X480476Y1474229D01*
X483808D01*
X485474Y1472563D01*
Y1470897D01*
X483808Y1469230D01*
X482142D01*
X483808D01*
X485474Y1467564D01*
Y1465898D01*
X483808Y1464232D01*
X480476D01*
X478809Y1465898D01*
X1067883Y575736D02*
Y585733D01*
X1071215Y582401D01*
X1074547Y585733D01*
Y575736D01*
X1084544Y585733D02*
X1077879D01*
Y575736D01*
X1084544D01*
X1077879Y580734D02*
X1081212D01*
X1094541Y584067D02*
X1092875Y585733D01*
X1089542D01*
X1087876Y584067D01*
Y577402D01*
X1089542Y575736D01*
X1092875D01*
X1094541Y577402D01*
X1104538Y575736D02*
X1097873D01*
X1104538Y582401D01*
Y584067D01*
X1102871Y585733D01*
X1099539D01*
X1097873Y584067D01*
X457549Y573986D02*
Y583983D01*
X460881Y580650D01*
X464213Y583983D01*
Y573986D01*
X474210Y583983D02*
X467546D01*
Y573986D01*
X474210D01*
X467546Y578984D02*
X470878D01*
X484207Y582317D02*
X482541Y583983D01*
X479208D01*
X477542Y582317D01*
Y575652D01*
X479208Y573986D01*
X482541D01*
X484207Y575652D01*
X487539Y573986D02*
X490871D01*
X489205D01*
Y583983D01*
X487539Y582317D01*
D12*
X380998Y1458250D02*
X374000D01*
X376333D01*
X380998Y1453585D01*
X377499Y1457084D01*
X374000Y1453585D01*
D13*
X608843Y1465578D02*
X606304Y1468118D01*
X601226D01*
X598687Y1465578D01*
Y1463039D01*
X601226Y1460500D01*
X606304D01*
X608843Y1457961D01*
Y1455422D01*
X606304Y1452883D01*
X601226D01*
X598687Y1455422D01*
X624078Y1465578D02*
X621539Y1468118D01*
X616461D01*
X613922Y1465578D01*
Y1455422D01*
X616461Y1452883D01*
X621539D01*
X624078Y1455422D01*
X639314Y1452883D02*
X629157D01*
X639314Y1463039D01*
Y1465578D01*
X636774Y1468118D01*
X631696D01*
X629157Y1465578D01*
X1090133Y615078D02*
X1087593Y617617D01*
X1082515D01*
X1079976Y615078D01*
Y612539D01*
X1082515Y610000D01*
X1087593D01*
X1090133Y607461D01*
Y604922D01*
X1087593Y602383D01*
X1082515D01*
X1079976Y604922D01*
X1105368Y615078D02*
X1102828Y617617D01*
X1097750D01*
X1095211Y615078D01*
Y604922D01*
X1097750Y602383D01*
X1102828D01*
X1105368Y604922D01*
X1110446Y602383D02*
X1115524D01*
X1112985D01*
Y617617D01*
X1110446Y615078D01*
X356093Y1501868D02*
Y1486633D01*
X363711D01*
X366250Y1489172D01*
Y1499328D01*
X363711Y1501868D01*
X356093D01*
X371328Y1486633D02*
X376407D01*
X373868D01*
Y1501868D01*
X371328Y1499328D01*
M02*
