G04*
G04 #@! TF.GenerationSoftware,Altium Limited,Altium Designer,24.10.1 (45)*
G04*
G04 Layer_Color=16711935*
%FSLAX44Y44*%
%MOMM*%
G71*
G04*
G04 #@! TF.SameCoordinates,FFF0C86F-6648-4025-B214-3B1406CF911A*
G04*
G04*
G04 #@! TF.FilePolarity,Negative*
G04*
G01*
G75*
%ADD22C,0.2032*%
%ADD23C,5.8032*%
%ADD24C,1.5032*%
%ADD25C,2.2032*%
%ADD32R,0.8000X1.3000*%
%ADD33R,2.1000X3.0000*%
D22*
X414000Y1356750D02*
D03*
X1044000Y712500D02*
D03*
D23*
X423960Y1493984D02*
D03*
Y577984D02*
D03*
X1033960D02*
D03*
Y1493984D02*
D03*
D24*
X482750Y1373000D02*
D03*
Y1416500D02*
D03*
X544000Y1373000D02*
D03*
X605250D02*
D03*
X666500D02*
D03*
X544000Y1416500D02*
D03*
X605250D02*
D03*
X666500D02*
D03*
X1034000Y1373000D02*
D03*
X972750D02*
D03*
X933250Y1356250D02*
D03*
X807000Y1359500D02*
D03*
X983750Y1415250D02*
D03*
X911500Y1416500D02*
D03*
X709750Y1416500D02*
D03*
X789000Y1416500D02*
D03*
X844500Y1416250D02*
D03*
X1034000Y1416500D02*
D03*
X1095250D02*
D03*
Y1373000D02*
D03*
X727750D02*
D03*
X850250D02*
D03*
X1095250Y1286000D02*
D03*
X1034000D02*
D03*
X972750D02*
D03*
X1034000Y1329500D02*
D03*
X972750D02*
D03*
X911500D02*
D03*
X482750D02*
D03*
X544000D02*
D03*
X605250D02*
D03*
X666500D02*
D03*
X727750D02*
D03*
X789000D02*
D03*
X850250D02*
D03*
X1095250D02*
D03*
X360250Y1242500D02*
D03*
X421500D02*
D03*
X482750D02*
D03*
X544000D02*
D03*
X605250D02*
D03*
X666500D02*
D03*
X727750D02*
D03*
X789000D02*
D03*
X911500Y1286000D02*
D03*
X421500D02*
D03*
X482750D02*
D03*
X544000D02*
D03*
X605250D02*
D03*
X666500D02*
D03*
X727750D02*
D03*
X789000D02*
D03*
X850250D02*
D03*
X360250Y1068500D02*
D03*
X421500D02*
D03*
X482750D02*
D03*
X544000D02*
D03*
X605250D02*
D03*
X666500D02*
D03*
X727750D02*
D03*
X789000D02*
D03*
X360250Y1112000D02*
D03*
X421500D02*
D03*
X482750D02*
D03*
X544000D02*
D03*
X605250D02*
D03*
X666500D02*
D03*
X727750D02*
D03*
X789000D02*
D03*
X360250Y1155500D02*
D03*
X421500D02*
D03*
X482750D02*
D03*
X544000D02*
D03*
X605250D02*
D03*
X666500D02*
D03*
X727750D02*
D03*
X789000D02*
D03*
X360250Y1199000D02*
D03*
X421500D02*
D03*
X482750D02*
D03*
X544000D02*
D03*
X605250D02*
D03*
X666500D02*
D03*
X727750D02*
D03*
X789000D02*
D03*
X1095250Y1068500D02*
D03*
X1034000D02*
D03*
X972750D02*
D03*
X911500D02*
D03*
X850250D02*
D03*
X1095250Y1112000D02*
D03*
X1034000D02*
D03*
X972750D02*
D03*
X911500D02*
D03*
X850250D02*
D03*
X1095250Y1155500D02*
D03*
X1034000D02*
D03*
X972750D02*
D03*
X911500D02*
D03*
X850250D02*
D03*
X1095250Y1199000D02*
D03*
X1034000D02*
D03*
X972750D02*
D03*
X911500D02*
D03*
X850250D02*
D03*
X1095250Y1242500D02*
D03*
X1034000D02*
D03*
X972750D02*
D03*
X911500D02*
D03*
X850250D02*
D03*
X360250Y1286000D02*
D03*
X975250Y696250D02*
D03*
Y652750D02*
D03*
X914000Y696250D02*
D03*
X852750D02*
D03*
X791500D02*
D03*
X914000Y652750D02*
D03*
X852750D02*
D03*
X791500D02*
D03*
X424000Y696250D02*
D03*
X485250D02*
D03*
X524750Y713000D02*
D03*
X651000Y709750D02*
D03*
X474250Y654000D02*
D03*
X546500Y652750D02*
D03*
X748250Y652750D02*
D03*
X669000Y652750D02*
D03*
X613500Y653000D02*
D03*
X424000Y652750D02*
D03*
X362750D02*
D03*
Y696250D02*
D03*
X730250D02*
D03*
X607750D02*
D03*
X362750Y783250D02*
D03*
X424000D02*
D03*
X485250D02*
D03*
X424000Y739750D02*
D03*
X485250D02*
D03*
X546500D02*
D03*
X975250D02*
D03*
X914000D02*
D03*
X852750D02*
D03*
X791500D02*
D03*
X730250D02*
D03*
X669000D02*
D03*
X607750D02*
D03*
X362750D02*
D03*
X1097750Y826750D02*
D03*
X1036500D02*
D03*
X975250D02*
D03*
X914000D02*
D03*
X852750D02*
D03*
X791500D02*
D03*
X730250D02*
D03*
X669000D02*
D03*
X546500Y783250D02*
D03*
X1036500D02*
D03*
X975250D02*
D03*
X914000D02*
D03*
X852750D02*
D03*
X791500D02*
D03*
X730250D02*
D03*
X669000D02*
D03*
X607750D02*
D03*
X1097750Y1000750D02*
D03*
X1036500D02*
D03*
X975250D02*
D03*
X914000D02*
D03*
X852750D02*
D03*
X791500D02*
D03*
X730250D02*
D03*
X669000D02*
D03*
X1097750Y957250D02*
D03*
X1036500D02*
D03*
X975250D02*
D03*
X914000D02*
D03*
X852750D02*
D03*
X791500D02*
D03*
X730250D02*
D03*
X669000D02*
D03*
X1097750Y913750D02*
D03*
X1036500D02*
D03*
X975250D02*
D03*
X914000D02*
D03*
X852750D02*
D03*
X791500D02*
D03*
X730250D02*
D03*
X669000D02*
D03*
X1097750Y870250D02*
D03*
X1036500D02*
D03*
X975250D02*
D03*
X914000D02*
D03*
X852750D02*
D03*
X791500D02*
D03*
X730250D02*
D03*
X669000D02*
D03*
X362750Y1000750D02*
D03*
X424000D02*
D03*
X485250D02*
D03*
X546500D02*
D03*
X607750D02*
D03*
X362750Y957250D02*
D03*
X424000D02*
D03*
X485250D02*
D03*
X546500D02*
D03*
X607750D02*
D03*
X362750Y913750D02*
D03*
X424000D02*
D03*
X485250D02*
D03*
X546500D02*
D03*
X607750D02*
D03*
X362750Y870250D02*
D03*
X424000D02*
D03*
X485250D02*
D03*
X546500D02*
D03*
X607750D02*
D03*
X362750Y826750D02*
D03*
X424000D02*
D03*
X485250D02*
D03*
X546500D02*
D03*
X607750D02*
D03*
X1097750Y783250D02*
D03*
D25*
X406750Y1451500D02*
D03*
X650000Y590000D02*
D03*
D32*
X686500Y678250D02*
D03*
X699000D02*
D03*
X566000Y678750D02*
D03*
X553500D02*
D03*
X661500Y678250D02*
D03*
X674000D02*
D03*
X528500Y678750D02*
D03*
X541000D02*
D03*
D33*
X724500Y650750D02*
D03*
X636000D02*
D03*
X591500Y651250D02*
D03*
X503000D02*
D03*
M02*
