G04*
G04 #@! TF.GenerationSoftware,Altium Limited,Altium Designer,24.10.1 (45)*
G04*
G04 Layer_Color=8388736*
%FSLAX44Y44*%
%MOMM*%
G71*
G04*
G04 #@! TF.SameCoordinates,FFF0C86F-6648-4025-B214-3B1406CF911A*
G04*
G04*
G04 #@! TF.FilePolarity,Negative*
G04*
G01*
G75*
G04:AMPARAMS|DCode=18|XSize=7.2032mm|YSize=3.2032mm|CornerRadius=0mm|HoleSize=0mm|Usage=FLASHONLY|Rotation=45.000|XOffset=0mm|YOffset=0mm|HoleType=Round|Shape=Rectangle|*
%AMROTATEDRECTD18*
4,1,4,-1.4142,-3.6792,-3.6792,-1.4142,1.4142,3.6792,3.6792,1.4142,-1.4142,-3.6792,0.0*
%
%ADD18ROTATEDRECTD18*%

%ADD19R,7.2032X3.2032*%
%ADD20R,0.7300X0.9900*%
%ADD21R,0.7300X1.0000*%
%ADD22C,0.2032*%
%ADD23C,5.8032*%
%ADD24C,1.5032*%
%ADD25C,2.2032*%
G36*
X392652Y605759D02*
X392783Y605733D01*
X392909Y605691D01*
X393028Y605632D01*
X393139Y605558D01*
X393239Y605470D01*
X393327Y605370D01*
X393401Y605259D01*
X393460Y605140D01*
X393503Y605014D01*
X393529Y604883D01*
X393537Y604750D01*
Y575231D01*
X393529Y575098D01*
X393503Y574967D01*
X393460Y574841D01*
X393401Y574722D01*
X393327Y574611D01*
X393239Y574511D01*
X393139Y574423D01*
X393028Y574349D01*
X392909Y574290D01*
X392783Y574247D01*
X392652Y574221D01*
X392519Y574213D01*
X347250D01*
X347117Y574221D01*
X346987Y574247D01*
X346860Y574290D01*
X346741Y574349D01*
X346630Y574423D01*
X346530Y574511D01*
X346442Y574611D01*
X346368Y574722D01*
X346309Y574841D01*
X346267Y574967D01*
X346241Y575098D01*
X346232Y575231D01*
Y604750D01*
X346241Y604883D01*
X346267Y605014D01*
X346309Y605140D01*
X346368Y605259D01*
X346442Y605370D01*
X346530Y605470D01*
X346630Y605558D01*
X346741Y605632D01*
X346860Y605691D01*
X346987Y605733D01*
X347117Y605759D01*
X347250Y605768D01*
X392519D01*
X392652Y605759D01*
D02*
G37*
G36*
X1110883Y1495029D02*
X1111013Y1495003D01*
X1111140Y1494960D01*
X1111259Y1494901D01*
X1111370Y1494827D01*
X1111470Y1494739D01*
X1111558Y1494639D01*
X1111632Y1494528D01*
X1111691Y1494409D01*
X1111733Y1494283D01*
X1111759Y1494152D01*
X1111768Y1494019D01*
Y1464500D01*
X1111759Y1464367D01*
X1111733Y1464236D01*
X1111691Y1464110D01*
X1111632Y1463991D01*
X1111558Y1463880D01*
X1111470Y1463780D01*
X1111370Y1463692D01*
X1111259Y1463618D01*
X1111140Y1463559D01*
X1111013Y1463517D01*
X1110883Y1463491D01*
X1110750Y1463482D01*
X1065481D01*
X1065348Y1463491D01*
X1065217Y1463517D01*
X1065091Y1463559D01*
X1064972Y1463618D01*
X1064861Y1463692D01*
X1064761Y1463780D01*
X1064673Y1463880D01*
X1064599Y1463991D01*
X1064540Y1464110D01*
X1064498Y1464236D01*
X1064472Y1464367D01*
X1064463Y1464500D01*
Y1494019D01*
X1064472Y1494152D01*
X1064498Y1494283D01*
X1064540Y1494409D01*
X1064599Y1494528D01*
X1064673Y1494639D01*
X1064761Y1494739D01*
X1064861Y1494827D01*
X1064972Y1494901D01*
X1065091Y1494960D01*
X1065217Y1495003D01*
X1065348Y1495029D01*
X1065481Y1495037D01*
X1110750D01*
X1110883Y1495029D01*
D02*
G37*
D18*
X375798Y1396645D02*
D03*
X1082202Y672605D02*
D03*
D19*
X730250Y1479500D02*
D03*
X929000Y1479500D02*
D03*
X525500D02*
D03*
X727750Y589750D02*
D03*
X529000Y589750D02*
D03*
X932500D02*
D03*
D20*
X356500Y1469250D02*
D03*
D21*
X378500D02*
D03*
D22*
X414000Y1356750D02*
D03*
X1044000Y712500D02*
D03*
D23*
X423960Y1493984D02*
D03*
Y577984D02*
D03*
X1033960D02*
D03*
Y1493984D02*
D03*
D24*
X482750Y1373000D02*
D03*
Y1416500D02*
D03*
X544000Y1373000D02*
D03*
X605250D02*
D03*
X666500D02*
D03*
X544000Y1416500D02*
D03*
X605250D02*
D03*
X666500D02*
D03*
X1034000Y1373000D02*
D03*
X972750D02*
D03*
X933250Y1356250D02*
D03*
X807000Y1359500D02*
D03*
X983750Y1415250D02*
D03*
X911500Y1416500D02*
D03*
X709750Y1416500D02*
D03*
X789000Y1416500D02*
D03*
X844500Y1416250D02*
D03*
X1034000Y1416500D02*
D03*
X1095250D02*
D03*
Y1373000D02*
D03*
X727750D02*
D03*
X850250D02*
D03*
X1095250Y1286000D02*
D03*
X1034000D02*
D03*
X972750D02*
D03*
X1034000Y1329500D02*
D03*
X972750D02*
D03*
X911500D02*
D03*
X482750D02*
D03*
X544000D02*
D03*
X605250D02*
D03*
X666500D02*
D03*
X727750D02*
D03*
X789000D02*
D03*
X850250D02*
D03*
X1095250D02*
D03*
X360250Y1242500D02*
D03*
X421500D02*
D03*
X482750D02*
D03*
X544000D02*
D03*
X605250D02*
D03*
X666500D02*
D03*
X727750D02*
D03*
X789000D02*
D03*
X911500Y1286000D02*
D03*
X421500D02*
D03*
X482750D02*
D03*
X544000D02*
D03*
X605250D02*
D03*
X666500D02*
D03*
X727750D02*
D03*
X789000D02*
D03*
X850250D02*
D03*
X360250Y1068500D02*
D03*
X421500D02*
D03*
X482750D02*
D03*
X544000D02*
D03*
X605250D02*
D03*
X666500D02*
D03*
X727750D02*
D03*
X789000D02*
D03*
X360250Y1112000D02*
D03*
X421500D02*
D03*
X482750D02*
D03*
X544000D02*
D03*
X605250D02*
D03*
X666500D02*
D03*
X727750D02*
D03*
X789000D02*
D03*
X360250Y1155500D02*
D03*
X421500D02*
D03*
X482750D02*
D03*
X544000D02*
D03*
X605250D02*
D03*
X666500D02*
D03*
X727750D02*
D03*
X789000D02*
D03*
X360250Y1199000D02*
D03*
X421500D02*
D03*
X482750D02*
D03*
X544000D02*
D03*
X605250D02*
D03*
X666500D02*
D03*
X727750D02*
D03*
X789000D02*
D03*
X1095250Y1068500D02*
D03*
X1034000D02*
D03*
X972750D02*
D03*
X911500D02*
D03*
X850250D02*
D03*
X1095250Y1112000D02*
D03*
X1034000D02*
D03*
X972750D02*
D03*
X911500D02*
D03*
X850250D02*
D03*
X1095250Y1155500D02*
D03*
X1034000D02*
D03*
X972750D02*
D03*
X911500D02*
D03*
X850250D02*
D03*
X1095250Y1199000D02*
D03*
X1034000D02*
D03*
X972750D02*
D03*
X911500D02*
D03*
X850250D02*
D03*
X1095250Y1242500D02*
D03*
X1034000D02*
D03*
X972750D02*
D03*
X911500D02*
D03*
X850250D02*
D03*
X360250Y1286000D02*
D03*
X975250Y696250D02*
D03*
Y652750D02*
D03*
X914000Y696250D02*
D03*
X852750D02*
D03*
X791500D02*
D03*
X914000Y652750D02*
D03*
X852750D02*
D03*
X791500D02*
D03*
X424000Y696250D02*
D03*
X485250D02*
D03*
X524750Y713000D02*
D03*
X651000Y709750D02*
D03*
X474250Y654000D02*
D03*
X546500Y652750D02*
D03*
X748250Y652750D02*
D03*
X669000Y652750D02*
D03*
X613500Y653000D02*
D03*
X424000Y652750D02*
D03*
X362750D02*
D03*
Y696250D02*
D03*
X730250D02*
D03*
X607750D02*
D03*
X362750Y783250D02*
D03*
X424000D02*
D03*
X485250D02*
D03*
X424000Y739750D02*
D03*
X485250D02*
D03*
X546500D02*
D03*
X975250D02*
D03*
X914000D02*
D03*
X852750D02*
D03*
X791500D02*
D03*
X730250D02*
D03*
X669000D02*
D03*
X607750D02*
D03*
X362750D02*
D03*
X1097750Y826750D02*
D03*
X1036500D02*
D03*
X975250D02*
D03*
X914000D02*
D03*
X852750D02*
D03*
X791500D02*
D03*
X730250D02*
D03*
X669000D02*
D03*
X546500Y783250D02*
D03*
X1036500D02*
D03*
X975250D02*
D03*
X914000D02*
D03*
X852750D02*
D03*
X791500D02*
D03*
X730250D02*
D03*
X669000D02*
D03*
X607750D02*
D03*
X1097750Y1000750D02*
D03*
X1036500D02*
D03*
X975250D02*
D03*
X914000D02*
D03*
X852750D02*
D03*
X791500D02*
D03*
X730250D02*
D03*
X669000D02*
D03*
X1097750Y957250D02*
D03*
X1036500D02*
D03*
X975250D02*
D03*
X914000D02*
D03*
X852750D02*
D03*
X791500D02*
D03*
X730250D02*
D03*
X669000D02*
D03*
X1097750Y913750D02*
D03*
X1036500D02*
D03*
X975250D02*
D03*
X914000D02*
D03*
X852750D02*
D03*
X791500D02*
D03*
X730250D02*
D03*
X669000D02*
D03*
X1097750Y870250D02*
D03*
X1036500D02*
D03*
X975250D02*
D03*
X914000D02*
D03*
X852750D02*
D03*
X791500D02*
D03*
X730250D02*
D03*
X669000D02*
D03*
X362750Y1000750D02*
D03*
X424000D02*
D03*
X485250D02*
D03*
X546500D02*
D03*
X607750D02*
D03*
X362750Y957250D02*
D03*
X424000D02*
D03*
X485250D02*
D03*
X546500D02*
D03*
X607750D02*
D03*
X362750Y913750D02*
D03*
X424000D02*
D03*
X485250D02*
D03*
X546500D02*
D03*
X607750D02*
D03*
X362750Y870250D02*
D03*
X424000D02*
D03*
X485250D02*
D03*
X546500D02*
D03*
X607750D02*
D03*
X362750Y826750D02*
D03*
X424000D02*
D03*
X485250D02*
D03*
X546500D02*
D03*
X607750D02*
D03*
X1097750Y783250D02*
D03*
D25*
X406750Y1451500D02*
D03*
X650000Y590000D02*
D03*
M02*
