M48
;Layer_Color=9474304
;FILE_FORMAT=4:4
METRIC,LZ
;TYPE=PLATED
T01F00S00C0.8000
T02F00S00C1.0000
T03F00S00C3.2000
;TYPE=NON_PLATED
%
T01
X0085275Y0065275
Y0069625
Y0073975
Y0078325
X00914
Y0073975
Y0069625
Y0065275
X0097525
Y0069625
Y0073975
Y0078325
X010365
X0109775
X007915
Y0073975
Y0069625
Y0065275
X0074825Y0065275
X0073025Y0069625
Y0073975
Y0078325
X00669
Y0073975
X00651Y0070975
X0060775Y0069625
Y0073975
Y0078325
X005465
Y0073975
X0052475Y00713
X0048525Y0069625
Y0073975
Y0078325
X00424
Y0073975
Y0069625
Y0065275
X0047425Y00654
X005465Y0065275
X006135Y00653
X00669Y0065275
X0036275
Y0069625
Y0073975
Y0078325
Y0082675
Y0087025
Y0091375
Y0095725
Y0100075
X0036025Y010685
Y01112
Y011555
X004215
Y01112
Y010685
X0048275
Y01112
Y011555
X00544
Y01112
Y010685
X0060525
Y01112
Y011555
X006665
Y01112
Y010685
X0072775
Y01112
Y011555
X00789
Y01112
Y010685
X007915Y0100075
Y0095725
Y0091375
Y0087025
Y0082675
X0073025
Y0087025
Y0091375
Y0095725
Y0100075
X00669
Y0095725
Y0091375
Y0087025
Y0082675
X0060775
Y0087025
Y0091375
Y0095725
Y0100075
X005465
Y0095725
Y0091375
Y0087025
Y0082675
X0048525
Y0087025
Y0091375
Y0095725
Y0100075
X00424
Y0095725
Y0091375
Y0087025
Y0082675
X0085275
Y0087025
Y0091375
Y0095725
Y0100075
X00914
Y0095725
Y0091375
Y0087025
Y0082675
X0097525
Y0087025
Y0091375
Y0095725
Y0100075
X010365
Y0095725
Y0091375
Y0087025
Y0082675
X0109775
Y0087025
Y0091375
Y0095725
Y0100075
X0109525Y010685
Y01112
Y011555
X01034
Y01112
Y010685
X0097275
Y01112
Y011555
X009115
Y01112
Y010685
X0085025
Y01112
Y011555
Y01199
Y012425
Y01286
Y013295
Y01373
X008445Y0141625
X009115Y014165
X0098375Y0141525
X01034Y014165
Y01373
Y013295
Y01286
Y012425
Y01199
X0109525
Y012425
Y01286
Y013295
Y01373
Y014165
X0097275Y01373
Y013295
Y01286
Y012425
Y01199
X009115
Y012425
Y01286
Y013295
X0093325Y0135625
X00807Y013595
X00789Y013295
Y01286
Y012425
Y01199
X0072775
Y012425
Y01286
Y013295
Y01373
X006665
Y014165
X0070975Y014165
X00789Y014165
X0060525
Y01373
Y013295
Y01286
Y012425
Y01199
X00544
Y012425
Y01286
Y013295
Y01373
Y014165
X0048275
Y01373
Y013295
Y01286
Y012425
Y01199
X004215
Y012425
Y01286
X006665
Y013295
Y012425
Y01199
X0036025
Y012425
Y01286
T02
X0065Y0059
X0040675Y014515
T03
X0103396Y00577984
X0042396
X0103396Y01493984
X0042396
M30
