G04*
G04 #@! TF.GenerationSoftware,Altium Limited,Altium Designer,24.10.1 (45)*
G04*
G04 Layer_Physical_Order=2*
G04 Layer_Color=13010237*
%FSLAX44Y44*%
%MOMM*%
G71*
G04*
G04 #@! TF.SameCoordinates,879D04A6-AA45-444B-BDC9-BE1431B33E20*
G04*
G04*
G04 #@! TF.FilePolarity,Positive*
G04*
G01*
G75*
%ADD26C,0.8000*%
%ADD27C,5.6000*%
%ADD28C,2.0000*%
%ADD29R,1.3000X0.8000*%
%ADD30R,3.0000X2.1000*%
%ADD31R,1.6500X7.5000*%
%ADD32R,9.0470X1.6500*%
%ADD33R,1.6500X7.5000*%
%ADD34R,7.5000X1.6500*%
%ADD35R,1.6500X9.1470*%
%ADD36R,1.6500X9.1470*%
%ADD37R,7.6000X1.6500*%
%ADD38R,1.6500X80.0000*%
%ADD39R,82.0000X1.6500*%
%ADD40R,82.0000X1.6359*%
D26*
X795250Y917250D02*
X828250Y884250D01*
X795250Y917250D02*
Y982250D01*
X828250Y884250D02*
X849250D01*
X806500Y993500D02*
X849250D01*
X795250Y982250D02*
X806500Y993500D01*
X856499Y1018500D02*
X868250Y1006749D01*
X851750Y909250D02*
X868250Y925750D01*
Y1006749D01*
X849250Y871750D02*
Y884250D01*
Y896750D02*
Y909250D01*
Y1018500D02*
X856499D01*
X849250Y909250D02*
X851750D01*
X773691Y1006000D02*
X849250D01*
X745441Y1034250D02*
X773691Y1006000D01*
X384250Y1034250D02*
X745441D01*
X849250Y993500D02*
Y1006000D01*
Y1018500D02*
Y1031000D01*
X1216046Y1182046D02*
X1279250Y1245250D01*
X1066354Y1182046D02*
X1216046D01*
X1007040Y1122731D02*
X1066354Y1182046D01*
X1007040Y1068099D02*
Y1122731D01*
X849250Y1031000D02*
X969941D01*
X1007040Y1068099D01*
D27*
X575000Y1401000D02*
D03*
Y485000D02*
D03*
X1069000D02*
D03*
Y1401000D02*
D03*
D28*
X384250Y1034250D02*
D03*
X1279250Y1245250D02*
D03*
D29*
X849250Y871750D02*
D03*
Y884250D02*
D03*
Y896750D02*
D03*
Y909250D02*
D03*
Y1031000D02*
D03*
Y1018500D02*
D03*
Y1006000D02*
D03*
Y993500D02*
D03*
D30*
X821750Y934750D02*
D03*
Y846250D02*
D03*
Y968000D02*
D03*
Y1056500D02*
D03*
D31*
X1223750Y1379500D02*
D03*
D32*
X1260765Y1334750D02*
D03*
X383235D02*
D03*
D33*
X420250Y1379500D02*
D03*
D34*
X1268500Y551250D02*
D03*
D35*
X1223750Y513735D02*
D03*
D36*
X420250D02*
D03*
D37*
X375000Y551250D02*
D03*
D38*
X340250Y943000D02*
D03*
X1303750Y943000D02*
D03*
D39*
X822000Y461250D02*
D03*
D40*
X822000Y1424821D02*
D03*
M02*
