G04*
G04 #@! TF.GenerationSoftware,Altium Limited,Altium Designer,24.10.1 (45)*
G04*
G04 Layer_Physical_Order=1*
G04 Layer_Color=255*
%FSLAX44Y44*%
%MOMM*%
G71*
G04*
G04 #@! TF.SameCoordinates,879D04A6-AA45-444B-BDC9-BE1431B33E20*
G04*
G04*
G04 #@! TF.FilePolarity,Positive*
G04*
G01*
G75*
G04:AMPARAMS|DCode=14|XSize=7mm|YSize=3mm|CornerRadius=0mm|HoleSize=0mm|Usage=FLASHONLY|Rotation=135.000|XOffset=0mm|YOffset=0mm|HoleType=Round|Shape=Rectangle|*
%AMROTATEDRECTD14*
4,1,4,3.5355,-1.4142,1.4142,-3.5355,-3.5355,1.4142,-1.4142,3.5355,3.5355,-1.4142,0.0*
%
%ADD14ROTATEDRECTD14*%

%ADD15R,3.0000X7.0000*%
%ADD16R,0.9000X0.6300*%
%ADD17R,0.8900X0.6300*%
%AMCUSTOMSHAPE24*
4,1,5,1.5000,1.4500,1.5000,-2.5500,-1.5000,-2.5500,-1.5000,-0.0500,0.0000,1.4500,1.5000,1.4500,0.0*%
%ADD24CUSTOMSHAPE24*%

%AMCUSTOMSHAPE25*
4,1,5,-1.5000,-1.4500,-1.5000,2.5500,1.5000,2.5500,1.5000,0.0500,0.0000,-1.4500,-1.5000,-1.4500,0.0*%
%ADD25CUSTOMSHAPE25*%

%ADD26C,0.8000*%
%ADD27C,5.6000*%
%ADD28C,2.0000*%
D14*
X466605Y596797D02*
D03*
X1191645Y1302952D02*
D03*
D15*
X383750Y951250D02*
D03*
X383750Y1150000D02*
D03*
Y746500D02*
D03*
X1274500Y948500D02*
D03*
X1274500Y749750D02*
D03*
Y1153250D02*
D03*
D16*
X1279250Y1266750D02*
D03*
D17*
Y1288750D02*
D03*
D24*
X383750Y1286500D02*
D03*
D25*
X1274500Y613250D02*
D03*
D26*
X384250Y1034250D02*
Y1149500D01*
Y951750D02*
Y1034250D01*
X383750Y1150000D02*
X384250Y1149500D01*
X383750Y951250D02*
X384250Y951750D01*
X1279250Y1245250D02*
Y1266750D01*
X560214Y582655D02*
X590809Y613250D01*
X1274500D01*
X480747Y582655D02*
X560214D01*
X466605Y596797D02*
X480747Y582655D01*
X1274500Y613250D02*
Y749750D01*
X1274500Y749750D02*
Y948500D01*
Y749750D02*
X1274500Y749750D01*
Y948500D02*
Y1153250D01*
X1274500Y948500D02*
X1274500Y948500D01*
X1206537Y1291560D02*
X1279940D01*
X1280000Y1291500D01*
X1192395Y1305702D02*
X1206537Y1291560D01*
X466605Y596797D02*
X468702D01*
X383750Y746500D02*
X383750Y746500D01*
Y951250D01*
X383750Y1150000D02*
Y1286500D01*
D27*
X575000Y1401000D02*
D03*
Y485000D02*
D03*
X1069000D02*
D03*
Y1401000D02*
D03*
D28*
X384250Y1034250D02*
D03*
X1279250Y1245250D02*
D03*
M02*
