G04*
G04 #@! TF.GenerationSoftware,Altium Limited,Altium Designer,24.10.1 (45)*
G04*
G04 Layer_Color=65535*
%FSLAX44Y44*%
%MOMM*%
G71*
G04*
G04 #@! TF.SameCoordinates,879D04A6-AA45-444B-BDC9-BE1431B33E20*
G04*
G04*
G04 #@! TF.FilePolarity,Positive*
G04*
G01*
G75*
%ADD10C,0.5000*%
%ADD11C,0.1500*%
%ADD12C,0.1000*%
%ADD13C,0.2540*%
D10*
X563396Y1350064D02*
X819936D01*
X820000Y548500D02*
Y1350000D01*
X418360Y694139D02*
Y1205064D01*
X418396Y1350064D02*
X563396D01*
X418396Y1205064D02*
Y1349500D01*
X552291Y1338959D02*
X563396Y1350064D01*
X418396Y1205064D02*
X435166Y1221834D01*
X418360Y694139D02*
X448342Y663106D01*
X536375Y576125D02*
X564000Y548500D01*
X820000D01*
X838314Y549686D02*
X1094854D01*
X838250Y549750D02*
Y1351250D01*
X1239889Y694686D02*
Y1205610D01*
X1094854Y549686D02*
X1239854D01*
Y550250D02*
Y694686D01*
X1094854Y549686D02*
X1105959Y560791D01*
X1223084Y677916D02*
X1239854Y694686D01*
X1209908Y1236644D02*
X1239889Y1205610D01*
X1094250Y1351250D02*
X1121875Y1323625D01*
X838250Y1351250D02*
X1094250D01*
D11*
X1271500Y1266750D02*
X1273786D01*
X1284866D02*
X1287152D01*
X1271250Y1274116D02*
X1287250D01*
X1271250Y1289250D02*
X1273536D01*
X1271250Y1266750D02*
Y1289250D01*
X1287250Y1266750D02*
Y1289250D01*
X1284964D02*
X1287250D01*
D12*
X1268250Y1264252D02*
Y1271250D01*
Y1268917D01*
X1263585Y1264252D01*
X1267084Y1267751D01*
X1263585Y1271250D01*
D13*
X977069Y1390383D02*
Y1405618D01*
X982147Y1400539D01*
X987226Y1405618D01*
Y1390383D01*
X1002461Y1405618D02*
X992304D01*
Y1390383D01*
X1002461D01*
X992304Y1398000D02*
X997383D01*
X1017696Y1403078D02*
X1015157Y1405618D01*
X1010078D01*
X1007539Y1403078D01*
Y1392922D01*
X1010078Y1390383D01*
X1015157D01*
X1017696Y1392922D01*
X1030392Y1390383D02*
Y1405618D01*
X1022774Y1398000D01*
X1032931D01*
X616069Y1392383D02*
Y1407618D01*
X621147Y1402539D01*
X626226Y1407618D01*
Y1392383D01*
X641461Y1407618D02*
X631304D01*
Y1392383D01*
X641461D01*
X631304Y1400000D02*
X636382D01*
X656696Y1405078D02*
X654157Y1407618D01*
X649078D01*
X646539Y1405078D01*
Y1394922D01*
X649078Y1392383D01*
X654157D01*
X656696Y1394922D01*
X661774Y1405078D02*
X664313Y1407618D01*
X669392D01*
X671931Y1405078D01*
Y1402539D01*
X669392Y1400000D01*
X666853D01*
X669392D01*
X671931Y1397461D01*
Y1394922D01*
X669392Y1392383D01*
X664313D01*
X661774Y1394922D01*
X970069Y478382D02*
Y493618D01*
X975147Y488539D01*
X980226Y493618D01*
Y478382D01*
X995461Y493618D02*
X985304D01*
Y478382D01*
X995461D01*
X985304Y486000D02*
X990383D01*
X1010696Y491078D02*
X1008157Y493618D01*
X1003078D01*
X1000539Y491078D01*
Y480922D01*
X1003078Y478382D01*
X1008157D01*
X1010696Y480922D01*
X1025931Y478382D02*
X1015774D01*
X1025931Y488539D01*
Y491078D01*
X1023392Y493618D01*
X1018314D01*
X1015774Y491078D01*
X614608Y472383D02*
Y487618D01*
X619687Y482539D01*
X624765Y487618D01*
Y472383D01*
X640000Y487618D02*
X629843D01*
Y472383D01*
X640000D01*
X629843Y480000D02*
X634922D01*
X655235Y485078D02*
X652696Y487618D01*
X647617D01*
X645078Y485078D01*
Y474922D01*
X647617Y472383D01*
X652696D01*
X655235Y474922D01*
X660313Y472383D02*
X665392D01*
X662853D01*
Y487618D01*
X660313Y485078D01*
X1157093Y1370328D02*
X1154554Y1372867D01*
X1149476D01*
X1146936Y1370328D01*
Y1367789D01*
X1149476Y1365250D01*
X1154554D01*
X1157093Y1362711D01*
Y1360172D01*
X1154554Y1357632D01*
X1149476D01*
X1146936Y1360172D01*
X1172328Y1370328D02*
X1169789Y1372867D01*
X1164711D01*
X1162172Y1370328D01*
Y1360172D01*
X1164711Y1357632D01*
X1169789D01*
X1172328Y1360172D01*
X1187563Y1357632D02*
X1177407D01*
X1187563Y1367789D01*
Y1370328D01*
X1185024Y1372867D01*
X1179946D01*
X1177407Y1370328D01*
X462632Y1373328D02*
X460093Y1375867D01*
X455015D01*
X452476Y1373328D01*
Y1370789D01*
X455015Y1368250D01*
X460093D01*
X462632Y1365711D01*
Y1363172D01*
X460093Y1360632D01*
X455015D01*
X452476Y1363172D01*
X477868Y1373328D02*
X475328Y1375867D01*
X470250D01*
X467711Y1373328D01*
Y1363172D01*
X470250Y1360632D01*
X475328D01*
X477868Y1363172D01*
X482946Y1360632D02*
X488024D01*
X485485D01*
Y1375867D01*
X482946Y1373328D01*
X1265186Y1316521D02*
Y1301286D01*
X1272803D01*
X1275343Y1303825D01*
Y1313982D01*
X1272803Y1316521D01*
X1265186D01*
X1280421Y1301286D02*
X1285499D01*
X1282960D01*
Y1316521D01*
X1280421Y1313982D01*
M02*
