G04*
G04 #@! TF.GenerationSoftware,Altium Limited,Altium Designer,24.10.1 (45)*
G04*
G04 Layer_Physical_Order=1*
G04 Layer_Color=255*
%FSLAX44Y44*%
%MOMM*%
G71*
G04*
G04 #@! TF.SameCoordinates,E948D51E-633D-4835-AA76-4EE43E599495*
G04*
G04*
G04 #@! TF.FilePolarity,Positive*
G04*
G01*
G75*
%ADD14R,7.0000X3.0000*%
G04:AMPARAMS|DCode=15|XSize=7mm|YSize=3mm|CornerRadius=0mm|HoleSize=0mm|Usage=FLASHONLY|Rotation=225.000|XOffset=0mm|YOffset=0mm|HoleType=Round|Shape=Rectangle|*
%AMROTATEDRECTD15*
4,1,4,1.4142,3.5355,3.5355,1.4142,-1.4142,-3.5355,-3.5355,-1.4142,1.4142,3.5355,0.0*
%
%ADD15ROTATEDRECTD15*%

%ADD16R,0.8900X0.6300*%
%ADD17R,0.9000X0.6300*%
%AMCUSTOMSHAPE26*
4,1,5,-1.4500,1.5000,2.5500,1.5000,2.5500,-1.5000,0.0500,-1.5000,-1.4500,0.0000,-1.4500,1.5000,0.0*%
%ADD26CUSTOMSHAPE26*%

%AMCUSTOMSHAPE27*
4,1,5,1.4500,-1.5000,-2.5500,-1.5000,-2.5500,1.5000,-0.0500,1.5000,1.4500,0.0000,1.4500,-1.5000,0.0*%
%ADD27CUSTOMSHAPE27*%

%ADD28C,0.8000*%
%ADD29C,5.6000*%
%ADD30C,1.3000*%
%ADD31C,2.0000*%
D14*
X727750Y589750D02*
D03*
X529000Y589750D02*
D03*
X932500D02*
D03*
X730250Y1479500D02*
D03*
X929000Y1479500D02*
D03*
X525500D02*
D03*
D15*
X1082202Y672605D02*
D03*
X375798Y1396645D02*
D03*
D16*
X427500Y1460250D02*
D03*
D17*
Y1482250D02*
D03*
D26*
X392500Y589750D02*
D03*
D27*
X1065500Y1479500D02*
D03*
D28*
X1082202Y672605D02*
X1096345Y686747D01*
X1065500Y797059D02*
Y1479500D01*
Y797059D02*
X1096345Y766214D01*
Y686747D02*
Y766214D01*
X427500Y1482600D02*
X428000Y1483100D01*
X428350D01*
X428500Y1483250D02*
X456750D01*
X427500Y1482250D02*
Y1482600D01*
X428350Y1483100D02*
X428500Y1483250D01*
X529500Y589250D02*
X653250D01*
X529000Y589750D02*
X529500Y589250D01*
X727250D02*
X727750Y589750D01*
X653250Y589250D02*
X727250D01*
X525500Y1479500D02*
X730250D01*
X730250Y1479500D02*
X730250Y1479500D01*
X929000D01*
X929408Y1479908D02*
X1065092D01*
X929000Y1479500D02*
X931440Y1477060D01*
X1068016Y672605D02*
X1082202D01*
X375798Y1396645D02*
X427500Y1448347D01*
Y1460250D01*
X932500Y589750D02*
X932750Y589500D01*
X727750Y589750D02*
X932500D01*
X727750Y589750D02*
X727750Y589750D01*
X392500D02*
X529000D01*
D29*
X347960Y577984D02*
D03*
X1109960D02*
D03*
X347960Y1493984D02*
D03*
X1109960D02*
D03*
D30*
X975250Y696250D02*
D03*
Y652750D02*
D03*
X914000Y696250D02*
D03*
X852750D02*
D03*
X791500D02*
D03*
X914000Y652750D02*
D03*
X852750D02*
D03*
X791500D02*
D03*
X424000Y696250D02*
D03*
X485250D02*
D03*
X524750Y713000D02*
D03*
X651000Y709750D02*
D03*
X474250Y654000D02*
D03*
X546500Y652750D02*
D03*
X748250Y652750D02*
D03*
X669000Y652750D02*
D03*
X613500Y653000D02*
D03*
X424000Y652750D02*
D03*
X362750D02*
D03*
Y696250D02*
D03*
X730250D02*
D03*
X607750D02*
D03*
X362750Y783250D02*
D03*
X424000D02*
D03*
X485250D02*
D03*
X424000Y739750D02*
D03*
X485250D02*
D03*
X546500D02*
D03*
X975250D02*
D03*
X914000D02*
D03*
X852750D02*
D03*
X791500D02*
D03*
X730250D02*
D03*
X669000D02*
D03*
X607750D02*
D03*
X362750D02*
D03*
X1097750Y826750D02*
D03*
X1036500D02*
D03*
X975250D02*
D03*
X914000D02*
D03*
X852750D02*
D03*
X791500D02*
D03*
X730250D02*
D03*
X669000D02*
D03*
X546500Y783250D02*
D03*
X1036500D02*
D03*
X975250D02*
D03*
X914000D02*
D03*
X852750D02*
D03*
X791500D02*
D03*
X730250D02*
D03*
X669000D02*
D03*
X607750D02*
D03*
X1097750Y1000750D02*
D03*
X1036500D02*
D03*
X975250D02*
D03*
X914000D02*
D03*
X852750D02*
D03*
X791500D02*
D03*
X730250D02*
D03*
X669000D02*
D03*
X1097750Y957250D02*
D03*
X1036500D02*
D03*
X975250D02*
D03*
X914000D02*
D03*
X852750D02*
D03*
X791500D02*
D03*
X730250D02*
D03*
X669000D02*
D03*
X1097750Y913750D02*
D03*
X1036500D02*
D03*
X975250D02*
D03*
X914000D02*
D03*
X852750D02*
D03*
X791500D02*
D03*
X730250D02*
D03*
X669000D02*
D03*
X1097750Y870250D02*
D03*
X1036500D02*
D03*
X975250D02*
D03*
X914000D02*
D03*
X852750D02*
D03*
X791500D02*
D03*
X730250D02*
D03*
X669000D02*
D03*
X362750Y1000750D02*
D03*
X424000D02*
D03*
X485250D02*
D03*
X546500D02*
D03*
X607750D02*
D03*
X362750Y957250D02*
D03*
X424000D02*
D03*
X485250D02*
D03*
X546500D02*
D03*
X607750D02*
D03*
X362750Y913750D02*
D03*
X424000D02*
D03*
X485250D02*
D03*
X546500D02*
D03*
X607750D02*
D03*
X362750Y870250D02*
D03*
X424000D02*
D03*
X485250D02*
D03*
X546500D02*
D03*
X607750D02*
D03*
X362750Y826750D02*
D03*
X424000D02*
D03*
X485250D02*
D03*
X546500D02*
D03*
X607750D02*
D03*
X1097750Y783250D02*
D03*
X482750Y1373000D02*
D03*
Y1416500D02*
D03*
X544000Y1373000D02*
D03*
X605250D02*
D03*
X666500D02*
D03*
X544000Y1416500D02*
D03*
X605250D02*
D03*
X666500D02*
D03*
X1034000Y1373000D02*
D03*
X972750D02*
D03*
X933250Y1356250D02*
D03*
X807000Y1359500D02*
D03*
X983750Y1415250D02*
D03*
X911500Y1416500D02*
D03*
X709750Y1416500D02*
D03*
X789000Y1416500D02*
D03*
X844500Y1416250D02*
D03*
X1034000Y1416500D02*
D03*
X1095250D02*
D03*
Y1373000D02*
D03*
X727750D02*
D03*
X850250D02*
D03*
X1095250Y1286000D02*
D03*
X1034000D02*
D03*
X972750D02*
D03*
X1034000Y1329500D02*
D03*
X972750D02*
D03*
X911500D02*
D03*
X482750D02*
D03*
X544000D02*
D03*
X605250D02*
D03*
X666500D02*
D03*
X727750D02*
D03*
X789000D02*
D03*
X850250D02*
D03*
X1095250D02*
D03*
X360250Y1242500D02*
D03*
X421500D02*
D03*
X482750D02*
D03*
X544000D02*
D03*
X605250D02*
D03*
X666500D02*
D03*
X727750D02*
D03*
X789000D02*
D03*
X911500Y1286000D02*
D03*
X421500D02*
D03*
X482750D02*
D03*
X544000D02*
D03*
X605250D02*
D03*
X666500D02*
D03*
X727750D02*
D03*
X789000D02*
D03*
X850250D02*
D03*
X360250Y1068500D02*
D03*
X421500D02*
D03*
X482750D02*
D03*
X544000D02*
D03*
X605250D02*
D03*
X666500D02*
D03*
X727750D02*
D03*
X789000D02*
D03*
X360250Y1112000D02*
D03*
X421500D02*
D03*
X482750D02*
D03*
X544000D02*
D03*
X605250D02*
D03*
X666500D02*
D03*
X727750D02*
D03*
X789000D02*
D03*
X360250Y1155500D02*
D03*
X421500D02*
D03*
X482750D02*
D03*
X544000D02*
D03*
X605250D02*
D03*
X666500D02*
D03*
X727750D02*
D03*
X789000D02*
D03*
X360250Y1199000D02*
D03*
X421500D02*
D03*
X482750D02*
D03*
X544000D02*
D03*
X605250D02*
D03*
X666500D02*
D03*
X727750D02*
D03*
X789000D02*
D03*
X1095250Y1068500D02*
D03*
X1034000D02*
D03*
X972750D02*
D03*
X911500D02*
D03*
X850250D02*
D03*
X1095250Y1112000D02*
D03*
X1034000D02*
D03*
X972750D02*
D03*
X911500D02*
D03*
X850250D02*
D03*
X1095250Y1155500D02*
D03*
X1034000D02*
D03*
X972750D02*
D03*
X911500D02*
D03*
X850250D02*
D03*
X1095250Y1199000D02*
D03*
X1034000D02*
D03*
X972750D02*
D03*
X911500D02*
D03*
X850250D02*
D03*
X1095250Y1242500D02*
D03*
X1034000D02*
D03*
X972750D02*
D03*
X911500D02*
D03*
X850250D02*
D03*
X360250Y1286000D02*
D03*
D31*
X456750Y1483250D02*
D03*
X653250Y589250D02*
D03*
M02*
