G04*
G04 #@! TF.GenerationSoftware,Altium Limited,Altium Designer,24.10.1 (45)*
G04*
G04 Layer_Physical_Order=2*
G04 Layer_Color=13010237*
%FSLAX44Y44*%
%MOMM*%
G71*
G04*
G04 #@! TF.SameCoordinates,42E66E28-5F05-4444-9B94-8F94A5FB47C6*
G04*
G04*
G04 #@! TF.FilePolarity,Positive*
G04*
G01*
G75*
%ADD26C,0.8000*%
%ADD27C,5.6000*%
%ADD28C,2.0000*%
%ADD29R,0.8000X1.3000*%
%ADD30R,2.1000X3.0000*%
%ADD31R,82.8000X1.6516*%
%ADD32R,1.6790X97.9999*%
%ADD33R,82.7999X1.6500*%
%ADD34R,1.6500X97.9999*%
D26*
X524750Y682500D02*
X537250D01*
X549750D02*
X562250D01*
X506500Y703250D02*
Y1433500D01*
Y703250D02*
X524750Y685000D01*
X456750Y1483250D02*
X506500Y1433500D01*
X524750Y682500D02*
Y685000D01*
Y656059D02*
Y682500D01*
X655960Y661960D02*
X674000Y680000D01*
X524750Y656059D02*
X547349Y633460D01*
X649209D01*
X655960Y640211D01*
Y661960D01*
X674000Y680000D02*
Y682500D01*
X562250D02*
X575559D01*
X615849Y722790D02*
X656401D01*
X575559Y682500D02*
X615849Y722790D01*
X656401D02*
X686500Y692691D01*
Y682500D02*
Y692691D01*
X661500Y682500D02*
X674000D01*
X686500D02*
X699000D01*
Y635000D02*
Y682500D01*
X653250Y589250D02*
X699000Y635000D01*
D27*
X347960Y577984D02*
D03*
X1109960D02*
D03*
X347960Y1493984D02*
D03*
X1109960D02*
D03*
D28*
X456750Y1483250D02*
D03*
X653250Y589250D02*
D03*
D29*
X686500Y682500D02*
D03*
X699000D02*
D03*
X562250D02*
D03*
X549750D02*
D03*
X661500D02*
D03*
X674000D02*
D03*
X524750D02*
D03*
X537250D02*
D03*
D30*
X724500Y655000D02*
D03*
X636000D02*
D03*
X587750D02*
D03*
X499250D02*
D03*
D31*
X728960Y554242D02*
D03*
D32*
X323355Y1035984D02*
D03*
D33*
X728960Y1517733D02*
D03*
D34*
X1134710Y1035984D02*
D03*
M02*
