G04*
G04 #@! TF.GenerationSoftware,Altium Limited,Altium Designer,24.10.1 (45)*
G04*
G04 Layer_Color=32896*
%FSLAX44Y44*%
%MOMM*%
G71*
G04*
G04 #@! TF.SameCoordinates,E948D51E-633D-4835-AA76-4EE43E599495*
G04*
G04*
G04 #@! TF.FilePolarity,Positive*
G04*
G01*
G75*
%ADD13C,0.2540*%
%ADD38C,0.2500*%
%ADD39C,0.2000*%
D13*
X724411Y720477D02*
X729490D01*
X726951D01*
Y707781D01*
X729490Y705242D01*
X732029D01*
X734568Y707781D01*
X719333Y705242D02*
X714255D01*
X716794D01*
Y720477D01*
X719333Y717938D01*
X587505Y720477D02*
X592584D01*
X590045D01*
Y707781D01*
X592584Y705242D01*
X595123D01*
X597662Y707781D01*
X572270Y705242D02*
X582427D01*
X572270Y715399D01*
Y717938D01*
X574809Y720477D01*
X579888D01*
X582427Y717938D01*
D38*
X700250Y695000D02*
G03*
X700250Y695000I-1250J0D01*
G01*
X563500D02*
G03*
X563500Y695000I-1250J0D01*
G01*
D39*
X630500Y673750D02*
Y682000D01*
X706750D02*
X730000D01*
X630500D02*
X653750D01*
X730000Y673750D02*
Y682000D01*
X650250Y643000D02*
X710250D01*
X493750Y673750D02*
Y682000D01*
X570000D02*
X593250D01*
X493750D02*
X517000D01*
X593250Y673750D02*
Y682000D01*
X513500Y643000D02*
X573500D01*
M02*
