G04*
G04 #@! TF.GenerationSoftware,Altium Limited,Altium Designer,24.10.1 (45)*
G04*
G04 Layer_Color=8388736*
%FSLAX44Y44*%
%MOMM*%
G71*
G04*
G04 #@! TF.SameCoordinates,E948D51E-633D-4835-AA76-4EE43E599495*
G04*
G04*
G04 #@! TF.FilePolarity,Negative*
G04*
G01*
G75*
%ADD18R,7.2032X3.2032*%
G04:AMPARAMS|DCode=19|XSize=7.2032mm|YSize=3.2032mm|CornerRadius=0mm|HoleSize=0mm|Usage=FLASHONLY|Rotation=225.000|XOffset=0mm|YOffset=0mm|HoleType=Round|Shape=Rectangle|*
%AMROTATEDRECTD19*
4,1,4,1.4142,3.6792,3.6792,1.4142,-1.4142,-3.6792,-3.6792,-1.4142,1.4142,3.6792,0.0*
%
%ADD19ROTATEDRECTD19*%

%ADD20R,0.9900X0.7300*%
%ADD21R,1.0000X0.7300*%
%ADD22C,0.2032*%
%ADD23C,5.8032*%
%ADD24C,1.5032*%
%ADD25C,2.2032*%
G36*
X418133Y605759D02*
X418264Y605733D01*
X418390Y605691D01*
X418509Y605632D01*
X418620Y605558D01*
X418720Y605470D01*
X418808Y605370D01*
X418882Y605259D01*
X418941Y605140D01*
X418983Y605014D01*
X419010Y604883D01*
X419018Y604750D01*
Y574750D01*
X419010Y574617D01*
X418983Y574487D01*
X418941Y574360D01*
X418882Y574241D01*
X418808Y574130D01*
X418720Y574030D01*
X418620Y573942D01*
X418509Y573868D01*
X418390Y573809D01*
X418264Y573767D01*
X418133Y573741D01*
X418000Y573732D01*
X393000D01*
X392867Y573741D01*
X392737Y573767D01*
X392610Y573809D01*
X392491Y573868D01*
X392380Y573942D01*
X392280Y574030D01*
X377280Y589030D01*
X377192Y589130D01*
X377118Y589241D01*
X377059Y589360D01*
X377016Y589487D01*
X376991Y589617D01*
X376982Y589750D01*
Y604750D01*
X376991Y604883D01*
X377016Y605014D01*
X377059Y605140D01*
X377118Y605259D01*
X377192Y605370D01*
X377280Y605470D01*
X377380Y605558D01*
X377491Y605632D01*
X377610Y605691D01*
X377737Y605733D01*
X377867Y605759D01*
X378000Y605768D01*
X418000D01*
X418133Y605759D01*
D02*
G37*
G36*
X1065133Y1495509D02*
X1065264Y1495484D01*
X1065390Y1495441D01*
X1065509Y1495382D01*
X1065620Y1495308D01*
X1065720Y1495220D01*
X1080720Y1480220D01*
X1080808Y1480120D01*
X1080882Y1480009D01*
X1080941Y1479890D01*
X1080984Y1479764D01*
X1081010Y1479633D01*
X1081018Y1479500D01*
Y1464500D01*
X1081010Y1464367D01*
X1080984Y1464236D01*
X1080941Y1464110D01*
X1080882Y1463991D01*
X1080808Y1463880D01*
X1080720Y1463780D01*
X1080620Y1463692D01*
X1080509Y1463618D01*
X1080390Y1463559D01*
X1080264Y1463517D01*
X1080133Y1463491D01*
X1080000Y1463482D01*
X1040000D01*
X1039867Y1463491D01*
X1039736Y1463517D01*
X1039610Y1463559D01*
X1039491Y1463618D01*
X1039380Y1463692D01*
X1039280Y1463780D01*
X1039192Y1463880D01*
X1039118Y1463991D01*
X1039059Y1464110D01*
X1039016Y1464236D01*
X1038990Y1464367D01*
X1038982Y1464500D01*
Y1494500D01*
X1038990Y1494633D01*
X1039016Y1494764D01*
X1039059Y1494890D01*
X1039118Y1495009D01*
X1039192Y1495120D01*
X1039280Y1495220D01*
X1039380Y1495308D01*
X1039491Y1495382D01*
X1039610Y1495441D01*
X1039736Y1495484D01*
X1039867Y1495509D01*
X1040000Y1495518D01*
X1065000D01*
X1065133Y1495509D01*
D02*
G37*
D18*
X727750Y589750D02*
D03*
X529000Y589750D02*
D03*
X932500D02*
D03*
X730250Y1479500D02*
D03*
X929000Y1479500D02*
D03*
X525500D02*
D03*
D19*
X1082202Y672605D02*
D03*
X375798Y1396645D02*
D03*
D20*
X427500Y1460250D02*
D03*
D21*
Y1482250D02*
D03*
D22*
X1044000Y712500D02*
D03*
X414000Y1356750D02*
D03*
D23*
X347960Y577984D02*
D03*
X1109960D02*
D03*
X347960Y1493984D02*
D03*
X1109960D02*
D03*
D24*
X975250Y696250D02*
D03*
Y652750D02*
D03*
X914000Y696250D02*
D03*
X852750D02*
D03*
X791500D02*
D03*
X914000Y652750D02*
D03*
X852750D02*
D03*
X791500D02*
D03*
X424000Y696250D02*
D03*
X485250D02*
D03*
X524750Y713000D02*
D03*
X651000Y709750D02*
D03*
X474250Y654000D02*
D03*
X546500Y652750D02*
D03*
X748250Y652750D02*
D03*
X669000Y652750D02*
D03*
X613500Y653000D02*
D03*
X424000Y652750D02*
D03*
X362750D02*
D03*
Y696250D02*
D03*
X730250D02*
D03*
X607750D02*
D03*
X362750Y783250D02*
D03*
X424000D02*
D03*
X485250D02*
D03*
X424000Y739750D02*
D03*
X485250D02*
D03*
X546500D02*
D03*
X975250D02*
D03*
X914000D02*
D03*
X852750D02*
D03*
X791500D02*
D03*
X730250D02*
D03*
X669000D02*
D03*
X607750D02*
D03*
X362750D02*
D03*
X1097750Y826750D02*
D03*
X1036500D02*
D03*
X975250D02*
D03*
X914000D02*
D03*
X852750D02*
D03*
X791500D02*
D03*
X730250D02*
D03*
X669000D02*
D03*
X546500Y783250D02*
D03*
X1036500D02*
D03*
X975250D02*
D03*
X914000D02*
D03*
X852750D02*
D03*
X791500D02*
D03*
X730250D02*
D03*
X669000D02*
D03*
X607750D02*
D03*
X1097750Y1000750D02*
D03*
X1036500D02*
D03*
X975250D02*
D03*
X914000D02*
D03*
X852750D02*
D03*
X791500D02*
D03*
X730250D02*
D03*
X669000D02*
D03*
X1097750Y957250D02*
D03*
X1036500D02*
D03*
X975250D02*
D03*
X914000D02*
D03*
X852750D02*
D03*
X791500D02*
D03*
X730250D02*
D03*
X669000D02*
D03*
X1097750Y913750D02*
D03*
X1036500D02*
D03*
X975250D02*
D03*
X914000D02*
D03*
X852750D02*
D03*
X791500D02*
D03*
X730250D02*
D03*
X669000D02*
D03*
X1097750Y870250D02*
D03*
X1036500D02*
D03*
X975250D02*
D03*
X914000D02*
D03*
X852750D02*
D03*
X791500D02*
D03*
X730250D02*
D03*
X669000D02*
D03*
X362750Y1000750D02*
D03*
X424000D02*
D03*
X485250D02*
D03*
X546500D02*
D03*
X607750D02*
D03*
X362750Y957250D02*
D03*
X424000D02*
D03*
X485250D02*
D03*
X546500D02*
D03*
X607750D02*
D03*
X362750Y913750D02*
D03*
X424000D02*
D03*
X485250D02*
D03*
X546500D02*
D03*
X607750D02*
D03*
X362750Y870250D02*
D03*
X424000D02*
D03*
X485250D02*
D03*
X546500D02*
D03*
X607750D02*
D03*
X362750Y826750D02*
D03*
X424000D02*
D03*
X485250D02*
D03*
X546500D02*
D03*
X607750D02*
D03*
X1097750Y783250D02*
D03*
X482750Y1373000D02*
D03*
Y1416500D02*
D03*
X544000Y1373000D02*
D03*
X605250D02*
D03*
X666500D02*
D03*
X544000Y1416500D02*
D03*
X605250D02*
D03*
X666500D02*
D03*
X1034000Y1373000D02*
D03*
X972750D02*
D03*
X933250Y1356250D02*
D03*
X807000Y1359500D02*
D03*
X983750Y1415250D02*
D03*
X911500Y1416500D02*
D03*
X709750Y1416500D02*
D03*
X789000Y1416500D02*
D03*
X844500Y1416250D02*
D03*
X1034000Y1416500D02*
D03*
X1095250D02*
D03*
Y1373000D02*
D03*
X727750D02*
D03*
X850250D02*
D03*
X1095250Y1286000D02*
D03*
X1034000D02*
D03*
X972750D02*
D03*
X1034000Y1329500D02*
D03*
X972750D02*
D03*
X911500D02*
D03*
X482750D02*
D03*
X544000D02*
D03*
X605250D02*
D03*
X666500D02*
D03*
X727750D02*
D03*
X789000D02*
D03*
X850250D02*
D03*
X1095250D02*
D03*
X360250Y1242500D02*
D03*
X421500D02*
D03*
X482750D02*
D03*
X544000D02*
D03*
X605250D02*
D03*
X666500D02*
D03*
X727750D02*
D03*
X789000D02*
D03*
X911500Y1286000D02*
D03*
X421500D02*
D03*
X482750D02*
D03*
X544000D02*
D03*
X605250D02*
D03*
X666500D02*
D03*
X727750D02*
D03*
X789000D02*
D03*
X850250D02*
D03*
X360250Y1068500D02*
D03*
X421500D02*
D03*
X482750D02*
D03*
X544000D02*
D03*
X605250D02*
D03*
X666500D02*
D03*
X727750D02*
D03*
X789000D02*
D03*
X360250Y1112000D02*
D03*
X421500D02*
D03*
X482750D02*
D03*
X544000D02*
D03*
X605250D02*
D03*
X666500D02*
D03*
X727750D02*
D03*
X789000D02*
D03*
X360250Y1155500D02*
D03*
X421500D02*
D03*
X482750D02*
D03*
X544000D02*
D03*
X605250D02*
D03*
X666500D02*
D03*
X727750D02*
D03*
X789000D02*
D03*
X360250Y1199000D02*
D03*
X421500D02*
D03*
X482750D02*
D03*
X544000D02*
D03*
X605250D02*
D03*
X666500D02*
D03*
X727750D02*
D03*
X789000D02*
D03*
X1095250Y1068500D02*
D03*
X1034000D02*
D03*
X972750D02*
D03*
X911500D02*
D03*
X850250D02*
D03*
X1095250Y1112000D02*
D03*
X1034000D02*
D03*
X972750D02*
D03*
X911500D02*
D03*
X850250D02*
D03*
X1095250Y1155500D02*
D03*
X1034000D02*
D03*
X972750D02*
D03*
X911500D02*
D03*
X850250D02*
D03*
X1095250Y1199000D02*
D03*
X1034000D02*
D03*
X972750D02*
D03*
X911500D02*
D03*
X850250D02*
D03*
X1095250Y1242500D02*
D03*
X1034000D02*
D03*
X972750D02*
D03*
X911500D02*
D03*
X850250D02*
D03*
X360250Y1286000D02*
D03*
D25*
X456750Y1483250D02*
D03*
X653250Y589250D02*
D03*
M02*
