G04*
G04 #@! TF.GenerationSoftware,Altium Limited,Altium Designer,24.10.1 (45)*
G04*
G04 Layer_Color=32896*
%FSLAX44Y44*%
%MOMM*%
G71*
G04*
G04 #@! TF.SameCoordinates,E5B528EB-D77E-400E-8825-5BB5A6744857*
G04*
G04*
G04 #@! TF.FilePolarity,Positive*
G04*
G01*
G75*
%ADD13C,0.2540*%
%ADD35C,0.2500*%
%ADD36C,0.2000*%
D13*
X724411Y716159D02*
X729490D01*
X726951D01*
Y703463D01*
X729490Y700924D01*
X732029D01*
X734568Y703463D01*
X719333Y700924D02*
X714255D01*
X716794D01*
Y716159D01*
X719333Y713620D01*
X591315Y716667D02*
X596394D01*
X593854D01*
Y703971D01*
X596394Y701432D01*
X598933D01*
X601472Y703971D01*
X576080Y701432D02*
X586237D01*
X576080Y711589D01*
Y714128D01*
X578619Y716667D01*
X583698D01*
X586237Y714128D01*
D35*
X700250Y690750D02*
G03*
X700250Y690750I-1250J0D01*
G01*
X567250Y691250D02*
G03*
X567250Y691250I-1250J0D01*
G01*
D36*
X630500Y669500D02*
Y677750D01*
X706750D02*
X730000D01*
X630500D02*
X653750D01*
X730000Y669500D02*
Y677750D01*
X650250Y638750D02*
X710250D01*
X497500Y670000D02*
Y678250D01*
X573750D02*
X597000D01*
X497500D02*
X520750D01*
X597000Y670000D02*
Y678250D01*
X517250Y639250D02*
X577250D01*
M02*
