G04*
G04 #@! TF.GenerationSoftware,Altium Limited,Altium Designer,24.10.1 (45)*
G04*
G04 Layer_Physical_Order=2*
G04 Layer_Color=13010237*
%FSLAX44Y44*%
%MOMM*%
G71*
G04*
G04 #@! TF.SameCoordinates,E5B528EB-D77E-400E-8825-5BB5A6744857*
G04*
G04*
G04 #@! TF.FilePolarity,Positive*
G04*
G01*
G75*
%ADD26C,0.8000*%
%ADD27C,5.6000*%
%ADD28C,2.0000*%
%ADD29R,0.8000X1.3000*%
%ADD30R,2.1000X3.0000*%
%ADD31R,82.8001X1.6734*%
%ADD32R,1.6790X98.0000*%
%ADD33R,82.8000X1.6766*%
%ADD34R,1.6710X98.0000*%
D26*
X406750Y1451500D02*
X466191D01*
X498290Y1419401D01*
Y711460D02*
X528500Y681250D01*
X498290Y711460D02*
Y1419401D01*
X528500Y678750D02*
Y681250D01*
Y678750D02*
X541000D01*
X528500Y652309D02*
X551599Y629210D01*
X649209D01*
X654866Y634867D01*
Y657057D01*
X661500Y663691D01*
X528500Y652309D02*
Y678750D01*
X661500Y663691D02*
Y678250D01*
X674000D01*
X566000Y678750D02*
Y681250D01*
X594040Y709290D01*
X632529D01*
X645109Y696710D02*
X675289D01*
X632529Y709290D02*
X645109Y696710D01*
X675289D02*
X686500Y685499D01*
Y678250D02*
Y685499D01*
Y678250D02*
X699000D01*
X650000Y590000D02*
X699000Y639000D01*
Y678250D01*
D27*
X423960Y1493984D02*
D03*
Y577984D02*
D03*
X1033960D02*
D03*
Y1493984D02*
D03*
D28*
X406750Y1451500D02*
D03*
X650000Y590000D02*
D03*
D29*
X686500Y678250D02*
D03*
X699000D02*
D03*
X566000Y678750D02*
D03*
X553500D02*
D03*
X661500Y678250D02*
D03*
X674000D02*
D03*
X528500Y678750D02*
D03*
X541000D02*
D03*
D30*
X724500Y650750D02*
D03*
X636000D02*
D03*
X591500Y651250D02*
D03*
X503000D02*
D03*
D31*
X728960Y1517617D02*
D03*
D32*
X323355Y1035984D02*
D03*
D33*
X728960Y554367D02*
D03*
D34*
X1134605Y1035984D02*
D03*
M02*
