G04*
G04 #@! TF.GenerationSoftware,Altium Limited,Altium Designer,24.10.1 (45)*
G04*
G04 Layer_Physical_Order=1*
G04 Layer_Color=255*
%FSLAX44Y44*%
%MOMM*%
G71*
G04*
G04 #@! TF.SameCoordinates,E5B528EB-D77E-400E-8825-5BB5A6744857*
G04*
G04*
G04 #@! TF.FilePolarity,Positive*
G04*
G01*
G75*
%ADD14R,7.0000X3.0000*%
G04:AMPARAMS|DCode=15|XSize=7mm|YSize=3mm|CornerRadius=0mm|HoleSize=0mm|Usage=FLASHONLY|Rotation=225.000|XOffset=0mm|YOffset=0mm|HoleType=Round|Shape=Rectangle|*
%AMROTATEDRECTD15*
4,1,4,1.4142,3.5355,3.5355,1.4142,-1.4142,-3.5355,-3.5355,-1.4142,1.4142,3.5355,0.0*
%
%ADD15ROTATEDRECTD15*%

%ADD16R,0.6300X0.8900*%
%ADD17R,0.6300X0.9000*%
%AMCUSTOMSHAPE24*
4,1,4,2.2635,1.4760,2.2635,-1.4760,-2.2635,-1.4760,-2.2635,1.4760,2.2635,1.4760,0.0*%
%ADD24CUSTOMSHAPE24*%

%AMCUSTOMSHAPE25*
4,1,4,-2.2635,-1.4760,-2.2635,1.4760,2.2635,1.4760,2.2635,-1.4760,-2.2635,-1.4760,0.0*%
%ADD25CUSTOMSHAPE25*%

%ADD26C,0.8000*%
%ADD27C,5.6000*%
%ADD28C,2.0000*%
D14*
X932500Y589750D02*
D03*
X529000D02*
D03*
X727750Y589750D02*
D03*
X525500Y1479500D02*
D03*
X929000D02*
D03*
X730250Y1479500D02*
D03*
D15*
X1082202Y672605D02*
D03*
X375798Y1396645D02*
D03*
D16*
X356500Y1469250D02*
D03*
D17*
X378500D02*
D03*
D24*
X369885Y589990D02*
D03*
D25*
X1088115Y1479260D02*
D03*
D26*
X1049057Y1459210D02*
X1069106Y1479260D01*
X1088115D01*
X1082210Y780349D02*
Y1473354D01*
X1088115Y1479260D01*
X394304Y1453796D02*
X404454D01*
X378500Y1469250D02*
X378850D01*
X394304Y1453796D01*
X404454D02*
X406750Y1451500D01*
X1082210Y780349D02*
X1096345Y766214D01*
Y686747D02*
Y766214D01*
X1082202Y672605D02*
X1096345Y686747D01*
X529000Y589750D02*
X529250Y590000D01*
X650000D01*
X727500D01*
X727750Y589750D01*
X401425Y612790D02*
X485960D01*
X509000Y589750D01*
X378625Y589990D02*
X401425Y612790D01*
X509000Y589750D02*
X529000D01*
X951440Y1477060D02*
X969290Y1459210D01*
X931440Y1477060D02*
X951440D01*
X969290Y1459210D02*
X1049057D01*
X929000Y1479500D02*
X931440Y1477060D01*
X730250Y1479500D02*
X929000D01*
X525500Y1479500D02*
X730250D01*
X730250Y1479500D01*
X356500Y1415943D02*
X375798Y1396645D01*
X356500Y1415943D02*
Y1469250D01*
X1068016Y672605D02*
X1082202D01*
X1053874Y658463D02*
X1068016Y672605D01*
X932500Y589750D02*
X932750Y589500D01*
X727750Y589750D02*
X932500D01*
X727750Y589750D02*
X727750Y589750D01*
D27*
X423960Y1493984D02*
D03*
Y577984D02*
D03*
X1033960D02*
D03*
Y1493984D02*
D03*
D28*
X406750Y1451500D02*
D03*
X650000Y590000D02*
D03*
M02*
